<?xml version="1.0" encoding="UTF-8" standalone="no"?>
<svg
   xmlns:dc="http://purl.org/dc/elements/1.1/"
   xmlns:cc="http://creativecommons.org/ns#"
   xmlns:rdf="http://www.w3.org/1999/02/22-rdf-syntax-ns#"
   xmlns:svg="http://www.w3.org/2000/svg"
   xmlns="http://www.w3.org/2000/svg"
   xmlns:sodipodi="http://sodipodi.sourceforge.net/DTD/sodipodi-0.dtd"
   xmlns:inkscape="http://www.inkscape.org/namespaces/inkscape"
   width="1189pt"
   height="457pt"
   viewBox="0 0 1189 457"
   version="1.1"
   id="svg3807"
   sodipodi:docname="laliga-stats-logo.svg"
   inkscape:version="0.92.3 (2405546, 2018-03-11)">
  <metadata
     id="metadata3813">
    <rdf:RDF>
      <cc:Work
         rdf:about="">
        <dc:format>image/svg+xml</dc:format>
        <dc:type
           rdf:resource="http://purl.org/dc/dcmitype/StillImage" />
        <dc:title></dc:title>
      </cc:Work>
    </rdf:RDF>
  </metadata>
  <defs
     id="defs3811" />
  <sodipodi:namedview
     pagecolor="#ffffff"
     bordercolor="#666666"
     borderopacity="1"
     objecttolerance="10"
     gridtolerance="10"
     guidetolerance="10"
     inkscape:pageopacity="0"
     inkscape:pageshadow="2"
     inkscape:window-width="1920"
     inkscape:window-height="1000"
     id="namedview3809"
     showgrid="false"
     inkscape:zoom="1.1044996"
     inkscape:cx="843.64767"
     inkscape:cy="304.66667"
     inkscape:window-x="-11"
     inkscape:window-y="-11"
     inkscape:window-maximized="1"
     inkscape:current-layer="#000101ff" />
  <g
     id="#ffffffff">
    <path
       fill="#ffffff"
       opacity="1.00"
       d=" M 164.74 193.12 C 173.77 180.23 187.10 170.47 202.21 166.01 C 199.55 167.93 197.23 170.27 195.04 172.70 C 203.10 171.75 211.49 172.49 218.95 175.88 C 219.63 183.05 220.48 190.20 221.41 197.34 C 222.67 190.24 223.27 183.03 224.04 175.86 C 231.48 172.50 239.86 171.74 247.91 172.72 C 245.75 170.24 243.40 167.93 240.73 166.00 C 255.82 170.46 269.11 180.21 278.16 193.06 C 275.49 191.36 272.71 189.86 269.82 188.57 C 273.13 195.88 274.96 203.91 274.21 211.96 C 267.71 215.08 260.98 217.74 254.61 221.13 C 261.70 220.11 268.69 218.41 275.72 217.01 C 281.13 223.16 284.55 230.82 286.13 238.82 C 287.17 236.91 288.42 235.07 289.01 232.95 C 289.34 232.08 289.49 230.48 290.61 230.34 C 289.82 238.34 289.23 246.50 286.41 254.13 C 284.13 261.18 280.24 267.53 276.17 273.67 C 276.88 270.66 277.38 267.60 277.82 264.54 C 271.85 269.93 264.75 274.17 256.85 275.98 C 251.81 270.62 247.01 265.01 241.80 259.81 C 245.05 266.37 248.94 272.61 252.46 279.03 C 248.33 286.07 242.07 291.63 234.99 295.58 C 238.06 296.19 241.15 296.72 244.29 296.78 C 229.57 301.69 213.39 301.69 198.67 296.79 C 201.80 296.72 204.89 296.18 207.95 295.59 C 200.88 291.62 194.61 286.08 190.49 279.03 C 194.03 272.61 197.88 266.35 201.18 259.80 C 195.93 264.98 191.16 270.63 186.09 275.98 C 178.20 274.16 171.10 269.94 165.15 264.54 C 165.54 267.62 166.08 270.67 166.78 273.69 C 163.03 268.03 159.39 262.22 157.10 255.78 C 154.06 247.64 152.78 238.90 152.45 230.27 C 154.10 233.00 155.10 236.09 156.79 238.82 C 158.41 230.82 161.81 223.13 167.26 216.99 C 174.31 218.41 181.33 220.08 188.44 221.13 C 182.03 217.76 175.28 215.07 168.74 211.94 C 168.00 203.90 169.82 195.87 173.13 188.56 C 170.22 189.86 167.41 191.37 164.74 193.12 M 221.46 199.98 C 211.36 207.35 201.22 214.67 191.12 222.03 C 195.01 233.93 198.86 245.83 202.73 257.73 C 215.24 257.72 227.74 257.73 240.25 257.73 C 244.12 245.83 247.97 233.93 251.86 222.04 C 241.73 214.68 231.62 207.30 221.46 199.98 Z"
       id="path3764" />
  </g>
  <g
     id="#931c81ff">
    <path
       fill="#931c81"
       opacity="1.00"
       d=" M 202.15 5.13 C 204.05 4.43 205.72 6.01 205.75 7.87 C 211.20 37.28 216.79 66.66 222.12 96.08 C 222.78 98.60 219.87 99.25 218.05 99.50 C 189.53 104.86 163.72 123.11 149.27 148.29 C 148.48 150.07 146.58 152.07 144.57 150.53 C 118.78 135.64 93.07 120.63 67.31 105.69 C 65.78 105.08 64.55 103.27 65.62 101.70 C 93.89 51.44 145.41 15.18 202.15 5.13 Z"
       id="path3767" />
  </g>
  <g
     id="#e52620ff">
    <path
       fill="#e52620"
       opacity="1.00"
       d=" M 240.57 27.79 C 293.54 23.04 348.06 40.89 387.97 76.03 C 389.36 76.94 389.43 79.04 388.19 80.11 C 368.71 102.67 349.17 125.17 329.65 147.70 C 328.59 149.41 326.27 149.59 324.97 148.04 C 303.00 128.72 272.49 119.51 243.51 123.76 C 241.64 124.05 238.63 124.61 238.27 122.01 C 233.78 92.73 229.60 63.40 225.19 34.11 C 224.96 32.56 224.53 30.29 226.44 29.64 C 231.07 28.58 235.85 28.30 240.57 27.79 Z"
       id="path3770" />
  </g>
  <g
     id="#2d52a0ff">
    <path
       fill="#2d52a0"
       opacity="1.00"
       d=" M 32.04 104.94 C 33.54 104.08 35.04 105.11 36.36 105.77 C 62.36 119.79 88.45 133.64 114.42 147.70 C 116.62 148.72 115.75 151.24 114.72 152.82 C 100.93 178.42 99.02 210.03 109.56 237.13 C 110.62 238.99 110.77 241.84 108.16 242.38 C 80.57 253.06 52.93 263.65 25.33 274.31 C 23.78 275.14 21.43 275.18 20.85 273.16 C 0.88 223.34 2.87 165.39 25.70 116.86 C 27.74 112.86 29.35 108.56 32.04 104.94 Z"
       id="path3773" />
  </g>
  <g
     id="#ef7d1bff">
    <path
       fill="#ef7d1b"
       opacity="1.00"
       d=" M 381.45 110.48 C 382.51 109.17 384.45 109.39 385.47 110.64 C 427.76 149.86 451.17 208.40 447.65 265.96 C 447.64 267.78 445.62 268.53 444.09 268.21 C 414.36 266.77 384.63 265.37 354.91 263.87 C 352.15 264.12 351.82 260.99 352.15 258.98 C 353.49 229.91 341.50 200.57 320.25 180.72 C 318.50 179.55 317.61 177.00 319.63 175.59 C 340.21 153.87 360.79 132.13 381.45 110.48 Z"
       id="path3776" />
  </g>
  <g
     id="#000101ff">
    <path
       fill="#000101"
       opacity="1.00"
       d=" M 211.55 157.81 C 226.26 155.85 241.55 158.33 254.82 165.01 C 270.40 172.75 283.10 186.09 290.03 202.04 C 297.75 219.52 298.30 240.00 291.60 257.90 C 281.89 284.80 255.57 304.71 226.98 306.45 C 211.01 307.67 194.69 303.58 181.23 294.90 C 167.31 286.03 156.45 272.45 150.96 256.88 C 144.46 238.72 145.39 218.04 153.56 200.57 C 163.97 177.70 186.59 160.93 211.55 157.81 M 164.74 193.12 C 167.41 191.37 170.22 189.86 173.13 188.56 C 169.82 195.87 168.00 203.90 168.74 211.94 C 175.28 215.07 182.03 217.76 188.44 221.13 C 181.33 220.08 174.31 218.41 167.26 216.99 C 161.81 223.13 158.41 230.82 156.79 238.82 C 155.10 236.09 154.10 233.00 152.45 230.27 C 152.78 238.90 154.06 247.64 157.10 255.78 C 159.39 262.22 163.03 268.03 166.78 273.69 C 166.08 270.67 165.54 267.62 165.15 264.54 C 171.10 269.94 178.20 274.16 186.09 275.98 C 191.16 270.63 195.93 264.98 201.18 259.80 C 197.88 266.35 194.03 272.61 190.49 279.03 C 194.61 286.08 200.88 291.62 207.95 295.59 C 204.89 296.18 201.80 296.72 198.67 296.79 C 213.39 301.69 229.57 301.69 244.29 296.78 C 241.15 296.72 238.06 296.19 234.99 295.58 C 242.07 291.63 248.33 286.07 252.46 279.03 C 248.94 272.61 245.05 266.37 241.80 259.81 C 247.01 265.01 251.81 270.62 256.85 275.98 C 264.75 274.17 271.85 269.93 277.82 264.54 C 277.38 267.60 276.88 270.66 276.17 273.67 C 280.24 267.53 284.13 261.18 286.41 254.13 C 289.23 246.50 289.82 238.34 290.61 230.34 C 289.49 230.48 289.34 232.08 289.01 232.95 C 288.42 235.07 287.17 236.91 286.13 238.82 C 284.55 230.82 281.13 223.16 275.72 217.01 C 268.69 218.41 261.70 220.11 254.61 221.13 C 260.98 217.74 267.71 215.08 274.21 211.96 C 274.96 203.91 273.13 195.88 269.82 188.57 C 272.71 189.86 275.49 191.36 278.16 193.06 C 269.11 180.21 255.82 170.46 240.73 166.00 C 243.40 167.93 245.75 170.24 247.91 172.72 C 239.86 171.74 231.48 172.50 224.04 175.86 C 223.27 183.03 222.67 190.24 221.41 197.34 C 220.48 190.20 219.63 183.05 218.95 175.88 C 211.49 172.49 203.10 171.75 195.04 172.70 C 197.23 170.27 199.55 167.93 202.21 166.01 C 187.10 170.47 173.77 180.23 164.74 193.12 Z"
       id="path3785" />
    <path
       fill="#000101"
       opacity="1.00"
       d=" M 221.46 199.98 C 231.62 207.30 241.73 214.68 251.86 222.04 C 247.97 233.93 244.12 245.83 240.25 257.73 C 227.74 257.73 215.24 257.72 202.73 257.73 C 198.86 245.83 195.01 233.93 191.12 222.03 C 201.22 214.67 211.36 207.35 221.46 199.98 Z"
       id="path3795" />
    <g
       aria-label="LaLigaStats"
       transform="scale(0.82706344,1.2090971)"
       style="font-style:normal;font-variant:normal;font-weight:normal;font-stretch:normal;font-size:140.03477478px;line-height:1.25;font-family:'Futura Maxi CG Bold';-inkscape-font-specification:'Futura Maxi CG Bold, ';letter-spacing:0px;word-spacing:0px;fill:#000000;fill-opacity:1;stroke:none;stroke-width:0.95478266"
       id="text3817">
      <path
         d="M 615.07756,244.37903 V 220.01298 H 581.18915 V 137.11239 H 553.18219 V 244.37903 Z"
         style="font-style:normal;font-variant:normal;font-weight:normal;font-stretch:normal;font-size:140.03477478px;font-family:'Futura Maxi CG Bold';-inkscape-font-specification:'Futura Maxi CG Bold, ';stroke-width:0.95478266"
         id="path3819" />
      <path
         d="m 625.22352,201.80846 c 0,27.58685 16.38407,44.67109 40.33002,44.67109 16.38406,0 25.76639,-10.50261 25.76639,-10.50261 v 8.40209 h 26.18651 v -85.98135 h -25.7664 v 8.82219 c -7.70191,-7.00174 -14.28355,-10.50261 -24.78616,-10.50261 -23.94594,0 -41.73036,21.14525 -41.73036,45.0912 z m 46.91165,-21.00522 c 11.48285,0 20.44508,8.68216 20.44508,21.28529 0,12.46309 -9.6624,21.00521 -21.28529,21.00521 -12.04299,0 -19.60487,-9.80243 -19.60487,-21.70539 0,-11.34281 7.98199,-20.58511 20.44508,-20.58511 z"
         style="font-style:normal;font-variant:normal;font-weight:normal;font-stretch:normal;font-size:140.03477478px;font-family:'Futura Maxi CG Bold';-inkscape-font-specification:'Futura Maxi CG Bold, ';stroke-width:0.95478266"
         id="path3821" />
      <path
         d="M 800.51424,244.37903 V 220.01298 H 766.62582 V 137.11239 H 738.61887 V 244.37903 Z"
         style="font-style:normal;font-variant:normal;font-weight:normal;font-stretch:normal;font-size:140.03477478px;font-family:'Futura Maxi CG Bold';-inkscape-font-specification:'Futura Maxi CG Bold, ';stroke-width:0.95478266"
         id="path3823" />
      <path
         d="m 840.9077,244.37903 v -85.98135 h -26.04647 v 85.98135 z M 812.34061,136.55225 c 0,8.82219 6.8617,15.6839 15.40382,15.6839 8.96223,0 16.104,-7.14178 16.104,-15.96397 0,-8.68215 -7.14177,-15.54386 -15.82393,-15.54386 -8.68215,0 -15.68389,7.14178 -15.68389,15.82393 z"
         style="font-style:normal;font-variant:normal;font-weight:normal;font-stretch:normal;font-size:140.03477478px;font-family:'Futura Maxi CG Bold';-inkscape-font-specification:'Futura Maxi CG Bold, ';stroke-width:0.95478266"
         id="path3825" />
      <path
         d="m 854.96808,199.70794 c 0,23.3858 15.12376,41.87039 37.38929,41.87039 10.22253,0 19.60486,-5.46135 24.64612,-9.94247 0.28007,2.24056 0.14003,4.20105 0.14003,6.4416 0,9.38233 -8.40209,13.58338 -17.50435,13.58338 -6.4416,0 -10.0825,-1.12028 -13.7234,-7.00174 -6.58164,0 -29.26727,0 -29.26727,0 2.80069,19.3248 21.28528,29.96744 42.43054,29.96744 24.08598,0 44.11095,-13.86344 44.11095,-40.47005 0,-4.20104 0,-75.75881 0,-75.75881 H 918.2638 v 9.6624 c -7.42184,-7.84195 -14.84369,-11.34282 -25.7664,-11.34282 -22.68563,0 -37.52932,19.7449 -37.52932,42.99068 z m 43.55082,-20.72515 c 13.44333,0 19.88493,9.24229 19.88493,20.72515 0,9.66239 -7.00173,20.02497 -20.02497,20.02497 -11.48285,0 -18.06448,-9.10226 -18.06448,-20.16501 0,-10.64264 6.02149,-20.58511 18.20452,-20.58511 z"
         style="font-style:normal;font-variant:normal;font-weight:normal;font-stretch:normal;font-size:140.03477478px;font-family:'Futura Maxi CG Bold';-inkscape-font-specification:'Futura Maxi CG Bold, ';stroke-width:0.95478266"
         id="path3827" />
      <path
         d="m 957.2591,201.80846 c 0,27.58685 16.38407,44.67109 40.33001,44.67109 16.38409,0 25.76639,-10.50261 25.76639,-10.50261 v 8.40209 h 26.1865 v -85.98135 h -25.7664 v 8.82219 c -7.7019,-7.00174 -14.2835,-10.50261 -24.78614,-10.50261 -23.94595,0 -41.73036,21.14525 -41.73036,45.0912 z m 46.9116,-21.00522 c 11.4829,0 20.4451,8.68216 20.4451,21.28529 0,12.46309 -9.6624,21.00521 -21.2853,21.00521 -12.04295,0 -19.60483,-9.80243 -19.60483,-21.70539 0,-11.34281 7.98198,-20.58511 20.44503,-20.58511 z"
         style="font-style:normal;font-variant:normal;font-weight:normal;font-stretch:normal;font-size:140.03477478px;font-family:'Futura Maxi CG Bold';-inkscape-font-specification:'Futura Maxi CG Bold, ';stroke-width:0.95478266"
         id="path3829" />
      <path
         d="m 1064.6329,167.3599 c 0,15.12376 7.4219,24.78616 21.0052,30.94769 4.6212,2.10052 12.6032,5.18128 15.964,6.4416 10.5026,3.92097 11.2028,6.02149 11.2028,10.50261 0,5.74142 -7.7019,8.40208 -15.5439,8.40208 -10.2225,0 -20.0249,-5.74142 -25.2062,-10.36257 -2.3806,4.06101 -11.2028,21.70539 -11.2028,21.70539 11.2028,7.00174 21.8454,13.3033 36.9692,13.3033 21.5653,0 42.8506,-12.04299 42.8506,-35.00869 0,-16.104 -8.262,-25.90644 -24.366,-32.34803 -2.8007,-1.12028 -8.2621,-3.36084 -11.6229,-4.62115 -5.6014,-2.10052 -12.1831,-4.06101 -12.1831,-9.80244 0,-5.60139 3.921,-9.38233 10.7827,-9.38233 10.3626,0 21.5654,8.54212 21.5654,8.54212 l 10.9227,-21.00521 c -7.7019,-5.04125 -20.4451,-11.48285 -34.3085,-11.48285 -19.0448,0 -36.8292,12.74316 -36.8292,34.16848 z"
         style="font-style:normal;font-variant:normal;font-weight:normal;font-stretch:normal;font-size:140.03477478px;font-family:'Futura Maxi CG Bold';-inkscape-font-specification:'Futura Maxi CG Bold, ';stroke-width:0.95478266"
         id="path3831" />
      <path
         d="m 1180.468,244.37903 v -62.17544 h 13.8634 v -23.80591 h -13.8634 v -21.28529 h -26.1865 v 21.28529 h -8.5422 v 23.66587 h 8.5422 v 62.31548 z"
         style="font-style:normal;font-variant:normal;font-weight:normal;font-stretch:normal;font-size:140.03477478px;font-family:'Futura Maxi CG Bold';-inkscape-font-specification:'Futura Maxi CG Bold, ';stroke-width:0.95478266"
         id="path3833" />
      <path
         d="m 1199.8584,201.80846 c 0,27.58685 16.3841,44.67109 40.33,44.67109 16.3841,0 25.7664,-10.50261 25.7664,-10.50261 v 8.40209 h 26.1865 v -85.98135 h -25.7664 v 8.82219 c -7.7019,-7.00174 -14.2835,-10.50261 -24.7861,-10.50261 -23.946,0 -41.7304,21.14525 -41.7304,45.0912 z m 46.9117,-21.00522 c 11.4828,0 20.4451,8.68216 20.4451,21.28529 0,12.46309 -9.6624,21.00521 -21.2853,21.00521 -12.043,0 -19.6049,-9.80243 -19.6049,-21.70539 0,-11.34281 7.982,-20.58511 20.4451,-20.58511 z"
         style="font-style:normal;font-variant:normal;font-weight:normal;font-stretch:normal;font-size:140.03477478px;font-family:'Futura Maxi CG Bold';-inkscape-font-specification:'Futura Maxi CG Bold, ';stroke-width:0.95478266"
         id="path3835" />
      <path
         d="m 1336.6395,244.37903 v -62.17544 h 13.8635 v -23.80591 h -13.8635 v -21.28529 h -26.1865 v 21.28529 h -8.5421 v 23.66587 h 8.5421 v 62.31548 z"
         style="font-style:normal;font-variant:normal;font-weight:normal;font-stretch:normal;font-size:140.03477478px;font-family:'Futura Maxi CG Bold';-inkscape-font-specification:'Futura Maxi CG Bold, ';stroke-width:0.95478266"
         id="path3837" />
      <path
         d="m 1356.03,184.72421 c 0,30.24752 38.5096,24.64612 38.5096,35.28877 0,4.06101 -5.0413,6.02149 -9.2423,6.02149 -7.7019,0 -12.043,-7.56188 -12.043,-7.56188 l -20.025,10.08251 c 6.7217,12.60313 17.3643,17.92445 31.7879,17.92445 18.2045,0 34.4486,-9.94247 34.4486,-28.56709 0,-29.40731 -39.6299,-25.48633 -39.6299,-35.14873 0,-3.36084 2.6607,-5.18129 6.8617,-5.18129 7.5619,0 10.6427,6.72167 10.6427,6.72167 l 19.7449,-8.68216 c -5.3214,-12.04299 -15.824,-18.90469 -28.147,-18.90469 -19.0448,0 -32.9082,11.34282 -32.9082,28.00695 z"
         style="font-style:normal;font-variant:normal;font-weight:normal;font-stretch:normal;font-size:140.03477478px;font-family:'Futura Maxi CG Bold';-inkscape-font-specification:'Futura Maxi CG Bold, ';stroke-width:0.95478266"
         id="path3839" />
    </g>
  </g>
  <g
     id="#4384c5ff">
    <path
       fill="#4384c5"
       opacity="1.00"
       d=" M 87.21 263.23 C 88.42 262.53 90.26 262.64 90.85 264.10 C 92.66 267.62 94.11 271.33 96.14 274.75 C 108.58 297.28 129.95 314.68 154.52 322.33 C 155.95 322.91 157.95 323.14 158.30 324.98 C 157.91 327.75 156.85 330.36 156.05 333.03 C 147.87 359.24 139.70 385.44 131.53 411.65 C 131.23 413.24 129.86 415.05 128.04 414.29 C 72.48 397.88 25.29 355.46 3.12 301.95 C 2.37 300.14 4.20 298.98 5.63 298.46 C 32.83 286.73 59.99 274.91 87.21 263.23 Z"
       id="path3798" />
  </g>
  <g
     id="#ffe609ff">
    <path
       fill="#ffe609"
       opacity="1.00"
       d=" M 324.30 275.15 C 324.72 274.97 325.56 274.60 325.98 274.41 C 355.69 276.45 385.38 279.02 415.08 281.22 C 416.70 281.21 419.30 281.69 419.05 283.88 C 415.53 341.67 384.62 396.93 337.60 430.62 C 336.19 431.74 334.36 430.95 333.59 429.51 C 315.95 405.51 298.31 381.50 280.74 357.45 C 279.20 355.95 280.15 353.72 281.84 352.85 C 305.57 335.79 321.16 308.01 323.44 278.88 C 323.66 277.63 323.49 276.21 324.30 275.15 Z"
       id="path3801" />
  </g>
  <g
     id="#20a637ff">
    <path
       fill="#20a637"
       opacity="1.00"
       d=" M 250.42 339.53 C 251.77 338.23 253.95 338.64 254.76 340.33 C 271.38 364.99 287.94 389.70 304.51 414.39 C 305.50 415.46 305.85 417.44 304.52 418.39 C 256.83 451.53 194.03 461.67 138.30 445.41 C 136.24 444.65 136.93 442.15 137.41 440.57 C 145.37 412.09 153.06 383.53 161.10 355.08 C 161.86 352.28 165.08 353.64 167.00 354.10 C 195.18 361.64 226.39 356.00 250.42 339.53 Z"
       id="path3804" />
  </g>
</svg>
